<?xml version="1.0" standalone="no"?>
<!DOCTYPE svg PUBLIC "-//W3C//DTD SVG 20010904//EN"
 "http://www.w3.org/TR/2001/REC-SVG-20010904/DTD/svg10.dtd">
<svg version="1.0" xmlns="http://www.w3.org/2000/svg"
 width="1453.000000pt" height="1453.000000pt" viewBox="0 0 1453.000000 1453.000000"
 preserveAspectRatio="xMidYMid meet">
<metadata>
Created by potrace 1.14, written by Peter Selinger 2001-2017
</metadata>
<g transform="translate(0.000000,1453.000000) scale(0.100000,-0.100000)"
fill="#000000" stroke="none">
<path d="M6958 14525 c-1 -1 -64 -6 -138 -9 -74 -4 -148 -9 -165 -11 -16 -2
-61 -6 -100 -10 -38 -3 -81 -7 -95 -9 -14 -2 -51 -7 -84 -11 -32 -4 -68 -8
-80 -10 -11 -2 -57 -9 -101 -15 -85 -12 -247 -40 -325 -55 -14 -3 -36 -8 -50
-10 -14 -3 -34 -7 -45 -9 -11 -3 -51 -11 -90 -20 -82 -17 -369 -91 -435 -111
-582 -178 -1013 -356 -1470 -605 -222 -122 -583 -347 -720 -451 -19 -14 -88
-65 -153 -113 -65 -48 -126 -93 -135 -101 -9 -8 -37 -30 -62 -50 -241 -195
-359 -303 -603 -550 -215 -217 -221 -224 -308 -325 -35 -41 -66 -77 -69 -80
-11 -11 -67 -78 -95 -114 -16 -21 -35 -44 -41 -50 -17 -18 -197 -256 -243
-321 -155 -220 -307 -461 -438 -695 -143 -254 -375 -755 -451 -975 -11 -33
-37 -105 -57 -160 -70 -193 -193 -621 -230 -800 -2 -11 -13 -63 -23 -115 -18
-86 -26 -126 -36 -185 -2 -11 -8 -47 -14 -80 -6 -33 -13 -76 -16 -95 -3 -19
-7 -51 -10 -70 -18 -119 -33 -245 -41 -340 -3 -36 -8 -85 -10 -110 -27 -268
-27 -950 -1 -1190 3 -19 7 -69 11 -110 7 -84 14 -153 20 -190 2 -14 9 -61 15
-106 6 -44 12 -90 14 -101 3 -11 7 -38 10 -59 4 -22 11 -64 16 -94 5 -30 12
-71 15 -90 3 -19 10 -51 15 -70 5 -19 11 -48 13 -65 3 -16 15 -73 27 -125 12
-52 23 -102 25 -110 1 -8 8 -35 15 -60 7 -25 13 -52 15 -60 2 -8 22 -80 45
-160 127 -441 268 -805 470 -1215 110 -223 144 -286 228 -430 26 -44 52 -88
57 -97 73 -129 268 -420 393 -588 77 -103 237 -307 252 -320 3 -3 21 -25 41
-50 20 -25 49 -59 65 -76 16 -18 58 -65 94 -105 133 -151 477 -487 644 -629
16 -14 34 -30 40 -36 13 -13 346 -274 413 -325 89 -67 478 -326 508 -338 6 -2
37 -21 70 -42 58 -36 404 -229 412 -229 1 0 72 -33 156 -74 135 -66 420 -190
517 -225 19 -7 44 -17 55 -21 264 -110 897 -288 1230 -345 11 -2 29 -6 40 -8
11 -3 42 -8 68 -11 27 -4 59 -9 70 -12 65 -13 357 -51 457 -59 41 -4 86 -8
100 -10 185 -26 948 -26 1210 0 25 3 92 9 150 15 158 16 348 42 445 60 28 6
68 12 90 16 45 6 302 60 355 74 19 5 46 11 60 14 14 2 54 12 90 21 36 9 72 19
80 20 56 13 473 141 505 155 11 5 61 23 110 40 50 17 104 38 120 45 17 7 73
30 125 50 52 21 124 51 160 67 36 16 88 39 115 51 93 41 425 208 523 264 415
235 834 523 1142 786 204 175 248 216 465 432 155 155 208 211 337 356 17 20
140 166 173 206 13 17 24 30 65 83 19 25 37 47 40 50 3 3 45 59 93 125 47 66
90 125 94 130 53 67 294 446 360 565 16 30 55 100 86 156 191 343 404 845 536
1259 47 149 106 357 117 415 2 14 9 36 13 50 33 91 129 610 156 845 4 33 9 71
11 85 7 53 20 203 30 355 15 209 8 891 -10 1050 -3 22 -7 69 -11 105 -7 72
-13 127 -20 180 -3 19 -7 53 -10 75 -7 63 -17 138 -21 160 -6 32 -26 148 -29
172 -2 12 -6 34 -9 50 -4 15 -9 39 -11 53 -26 140 -100 453 -125 535 -20 64
-72 238 -75 254 -11 51 -168 483 -209 575 -8 17 -44 101 -81 186 -61 141 -203
428 -274 555 -46 82 -83 148 -100 177 -9 14 -38 64 -66 110 -94 159 -403 606
-470 681 -6 7 -49 59 -95 117 -82 102 -119 145 -170 201 -14 15 -50 56 -80 90
-59 69 -406 418 -480 484 -25 22 -66 58 -90 80 -25 22 -72 63 -104 90 -33 28
-64 55 -70 60 -34 31 -218 174 -326 253 -69 51 -130 96 -137 101 -20 17 -282
189 -355 234 -38 23 -82 49 -96 58 -215 131 -622 339 -872 444 -269 115 -546
213 -885 313 -116 35 -479 121 -575 137 -19 3 -57 10 -85 15 -27 5 -66 12 -85
15 -19 3 -42 8 -50 10 -8 2 -37 6 -65 10 -27 3 -57 8 -65 10 -8 2 -40 6 -71
10 -31 3 -65 7 -75 9 -11 2 -53 7 -94 11 -41 4 -82 8 -90 10 -8 1 -60 6 -115
10 -55 4 -118 9 -140 12 -48 5 -762 13 -767 8z"/>
</g>
</svg>
